<svg width="42" height="42" viewBox="0 0 42 42" fill="none" xmlns="http://www.w3.org/2000/svg">
<rect width="42" height="42" rx="14" fill="#9A9390"/>
<path fill-rule="evenodd" clip-rule="evenodd" d="M26.8333 15.5C26.8333 18.5376 24.2216 21 21 21C17.7783 21 15.1666 18.5376 15.1666 15.5C15.1666 12.4624 17.7783 10 21 10C24.2216 10 26.8333 12.4624 26.8333 15.5ZM25.1666 15.5C25.1666 13.3303 23.3011 11.5714 21 11.5714C18.6988 11.5714 16.8333 13.3303 16.8333 15.5C16.8333 17.6697 18.6988 19.4286 21 19.4286C23.3011 19.4286 25.1666 17.6697 25.1666 15.5Z" fill="white"/>
<path fill-rule="evenodd" clip-rule="evenodd" d="M20.1667 22.5714H21.8333C26.8959 22.5714 31 26.441 31 31.2143C31 31.6482 30.6269 32 30.1667 32H11.8333C11.3731 32 11 31.6482 11 31.2143C11 26.441 15.1041 22.5714 20.1667 22.5714ZM20.1667 24.1428C16.3484 24.1445 13.1409 26.8507 12.7167 30.4286H29.2833C28.8591 26.8507 25.6516 24.1445 21.8333 24.1428H20.1667Z" fill="white"/>
</svg>
